<svg xmlns="http://www.w3.org/2000/svg" style="position:absolute; width: 0; height: 0"><symbol viewBox="0 0 13 17" id="icon-arrow-small"><path d="M6.566.003L6.5 15.878M.7 9.9l5.8 5.8 5.8-5.8"></path></symbol><symbol viewBox="0 0 30 12" id="icon-arrow-submit"><path d="M0 5.8h28.875M22.898 11.601l5.8-5.8L22.898 0"></path></symbol><symbol viewBox="0 0 22.1 32.6" id="icon-arrow"><path d="M10.5 32.1V.5c0-.3.3-.5.5-.5s.5.2.5.5v31.6c0 .3-.2.5-.5.5s-.5-.2-.5-.5z"></path><path d="M0 21.6c0-.1 0-.3.1-.4.2-.2.5-.2.7 0L11 31.4l10.2-10.2c.2-.2.5-.2.7 0 .2.2.2.5 0 .7L11.4 32.5c-.1.1-.2.1-.4.1s-.3-.1-.4-.1L.1 22c-.1-.1-.1-.3-.1-.4z"></path></symbol><symbol viewBox="0 0 16 16" id="icon-cart"><path d="M.375 15.625h15.25v-9.73H.375z"></path><path d="M10.789 8.855V3.394c0-1.667-1.25-3.019-2.79-3.019S5.213 1.727 5.213 3.394v5.461"></path></symbol><symbol viewBox="0 0 22 22" id="icon-close"><path d="M.265.265L19.911 19.91M19.912.265L.266 19.911"></path></symbol><symbol viewBox="0 0 20 20" id="icon-facebook"><path d="M6.5 7.6H8V6.2c0-.6 0-1.6.5-2.2.5-.6 1.1-1 2.3-1 1.9 0 2.7.3 2.7.3l-.4 2.1s-.6-.2-1.2-.2-1.1.2-1.1.8v1.6h2.4L13 9.7h-2.2V17H8V9.7H6.5V7.6z" fill-rule="evenodd" clip-rule="evenodd"></path></symbol><symbol viewBox="0 0 20 20" id="icon-instagram"><path d="M7.7 10c0-1.3 1-2.3 2.3-2.3s2.3 1 2.3 2.3-1 2.3-2.3 2.3-2.3-1-2.3-2.3m-1.3 0c0 2 1.6 3.6 3.6 3.6s3.6-1.6 3.6-3.6S12 6.4 10 6.4 6.4 8 6.4 10m6.5-3.7c0 .5.4.8.8.8.5 0 .8-.4.8-.8 0-.5-.4-.8-.8-.8s-.8.3-.8.8m-5.7 9.4c-.7 0-1.1-.1-1.3-.2-.3-.1-.6-.3-.8-.5-.2-.2-.4-.5-.5-.8-.1-.2-.2-.6-.2-1.3v-2.8-2.8c0-.7.1-1.1.2-1.3.1-.3.3-.6.5-.8.2-.2.5-.4.8-.5.2-.1.6-.2 1.3-.2h5.6c.7 0 1.1.1 1.3.2.3.1.6.3.8.5s.4.5.5.8c.1.2.2.6.2 1.3v5.6c0 .7-.1 1.1-.2 1.3-.1.3-.3.6-.5.8s-.5.4-.8.5c-.2.1-.6.2-1.3.2H7.2M7.1 3c-.7 0-1.3.2-1.7.3-.4.2-.8.5-1.2.9s-.7.8-.8 1.2c-.2.5-.3 1-.4 1.7v5.8c0 .7.2 1.3.3 1.7.2.5.4.9.8 1.2.4.4.8.6 1.2.8.4.2 1 .3 1.7.3h5.8c.7 0 1.3-.2 1.7-.3.5-.2.9-.4 1.2-.8.4-.4.6-.8.8-1.2.2-.4.3-1 .3-1.7V10 7.1c0-.7-.2-1.3-.3-1.7-.2-.5-.4-.9-.8-1.2-.4-.4-.8-.6-1.2-.8s-1-.3-1.7-.3H9.9C8.1 3 7.9 3 7.1 3"></path></symbol><symbol viewBox="0 0 9 9" id="icon-minus"><path d="M0 5.5h9"></path></symbol><symbol viewBox="0 0 188.135 188.135" id="icon-play"><path d="M94.067 188.135C42.198 188.135 0 145.937 0 94.067S42.198 0 94.067 0s94.067 42.198 94.067 94.067-42.196 94.068-94.067 94.068zM94.067 3C43.853 3 3 43.853 3 94.067s40.853 91.067 91.067 91.067 91.067-40.853 91.067-91.067S144.283 3 94.067 3z"></path><path d="M69.067 138.124V50.01l76.311 44.057-76.311 44.057zm3-82.917v77.722l67.311-38.861-67.311-38.861z"></path></symbol><symbol viewBox="0 0 9 9" id="icon-plus"><path d="M4.5 0v9M9 4.5H0"></path></symbol><symbol viewBox="0 0 16 16" id="icon-search"><path d="M6.329 12.283a5.954 5.954 0 1 0 0-11.909 5.954 5.954 0 0 0 0 11.909zM10.221 10.221l5.514 5.514"></path></symbol><symbol viewBox="0 0 8 6" id="icon-select-arrow"><path fill="#626950" d="M0 0l3.653 5.656L7.306 0z"></path></symbol><symbol viewBox="0 0 20 20" id="icon-twitter"><path d="M18.5 4.7c-.6.3-1.3.5-2 .6.7-.4 1.3-1.1 1.5-2-.7.4-1.4.7-2.2.9-.6-.8-1.5-1.2-2.5-1.2-1.9 0-3.5 1.6-3.5 3.5 0 .3 0 .5.1.8C7 7.2 4.4 5.8 2.7 3.6c-.3.6-.5 1.2-.5 1.8 0 1.2.6 2.3 1.6 2.9-.6 0-1.1-.2-1.6-.4 0 1.7 1.2 3.1 2.8 3.5-.3.1-.6.1-.9.1-.2 0-.4 0-.7-.1.4 1.4 1.7 2.4 3.3 2.5-1.2.9-2.7 1.5-4.3 1.5h-.8C3 16.4 4.9 17 6.8 17c6.4 0 9.9-5.4 9.9-10.1v-.5c.7-.4 1.3-1 1.8-1.7"></path></symbol></svg>