<?xml version="1.0" standalone="no"?>
<!DOCTYPE svg PUBLIC "-//W3C//DTD SVG 20010904//EN"
 "http://www.w3.org/TR/2001/REC-SVG-20010904/DTD/svg10.dtd">
<svg version="1.0" xmlns="http://www.w3.org/2000/svg"
 width="700.000000pt" height="700.000000pt" viewBox="0 0 700.000000 700.000000"
 preserveAspectRatio="xMidYMid meet">
<metadata>
Created by potrace 1.11, written by Peter Selinger 2001-2013
</metadata>
<g transform="translate(0.000000,700.000000) scale(0.100000,-0.100000)"
fill="#000000" stroke="none">
<path d="M2359 6025 c-1 -3 -1 -16 -1 -30 0 -47 2 -55 15 -55 63 0 128 -46
147 -103 12 -37 15 -137 6 -184 -3 -11 -7 -43 -11 -70 -8 -58 -7 -53 -44 -289
-16 -104 -32 -209 -36 -234 -3 -25 -12 -83 -20 -130 -8 -47 -17 -103 -20 -125
-13 -92 -25 -131 -58 -179 -23 -32 -88 -65 -129 -66 -26 0 -28 -3 -28 -45 l0
-45 267 2 267 3 1 38 c0 45 1 43 -46 51 -75 12 -121 41 -146 94 -24 50 -24
200 1 328 2 12 7 45 11 74 4 29 8 60 10 69 1 9 6 41 10 71 4 30 9 62 10 70 1
8 6 40 10 70 4 30 9 63 11 72 1 9 10 68 19 130 27 189 20 187 85 25 32 -79
122 -274 200 -433 165 -336 230 -482 261 -588 l22 -76 52 0 51 0 23 72 c31
101 63 170 240 528 86 173 183 381 215 463 33 81 60 147 62 147 1 0 2 -8 2
-17 -1 -22 12 -152 17 -173 2 -8 7 -44 10 -80 3 -36 8 -72 10 -80 2 -8 7 -49
10 -90 4 -41 9 -84 11 -95 2 -11 6 -45 10 -75 3 -30 11 -100 19 -155 19 -146
15 -232 -13 -277 -26 -41 -91 -78 -140 -78 -31 0 -32 -1 -32 -45 l0 -45 345 0
345 0 0 44 0 44 -42 7 c-79 13 -136 53 -169 116 -17 35 -30 99 -44 214 -3 28
-8 61 -10 75 -3 14 -7 48 -10 75 -3 28 -8 64 -10 80 -2 17 -7 53 -10 80 -3 28
-8 66 -11 85 -17 121 -20 145 -34 250 -6 47 -13 103 -16 125 -10 73 -7 161 7
191 18 37 69 71 119 79 22 4 40 10 41 13 1 4 2 24 3 45 l1 37 -230 0 -231 0 2
-77 c2 -107 -27 -215 -103 -383 -70 -155 -109 -238 -234 -489 l-135 -274 -33
84 c-18 46 -91 203 -162 348 -71 144 -129 265 -129 267 0 2 -14 34 -31 71 -43
94 -106 293 -119 381 l-12 72 -224 0 c-123 0 -224 -2 -225 -5z"/>
<path d="M4980 4725 c-47 -21 -72 -58 -78 -116 -6 -61 22 -109 79 -137 113
-56 241 75 182 187 -35 67 -114 96 -183 66z"/>
<path d="M2159 2656 c-7 -7 -133 -16 -234 -18 l-94 -1 -15 -43 c-8 -24 -12
-44 -8 -45 4 0 35 -3 70 -5 76 -6 112 -18 112 -39 0 -19 -41 -183 -76 -306
-14 -47 -26 -96 -29 -108 -7 -38 -15 -42 -48 -24 -25 14 -57 18 -142 18 -109
0 -111 0 -195 -42 -193 -94 -376 -330 -444 -571 -67 -234 21 -416 205 -427
139 -9 264 66 384 230 13 19 14 18 8 -10 -11 -55 -5 -135 11 -160 39 -60 133
-78 208 -42 70 35 154 130 207 234 27 54 27 70 -1 67 -13 -1 -31 -3 -40 -3
-10 -1 -35 -29 -59 -66 -82 -131 -164 -143 -134 -21 11 46 70 260 172 626 19
69 59 213 88 320 30 107 69 250 88 318 l34 122 -32 0 c-17 0 -34 -2 -36 -4z
m-454 -673 c113 -32 117 -210 10 -439 -80 -172 -184 -299 -267 -326 -52 -17
-125 -8 -162 19 -126 94 -30 476 167 665 86 82 164 107 252 81z"/>
<path d="M3062 2650 c-55 -22 -81 -71 -74 -136 5 -39 35 -72 95 -103 74 -38
86 -82 49 -173 -27 -65 -128 -127 -231 -144 -39 -6 -39 -7 -39 -50 0 -51 1
-51 92 -28 184 46 338 185 364 327 25 138 -24 259 -125 303 -36 16 -96 17
-131 4z"/>
<path d="M3899 2625 c-7 -65 1 -80 43 -83 101 -8 165 -53 187 -134 9 -32 11
-183 9 -578 -3 -594 -1 -571 -70 -623 -33 -25 -54 -32 -124 -43 -21 -3 -41 -8
-43 -10 -9 -9 -6 -74 3 -77 6 -2 307 -3 669 -3 575 1 659 3 666 16 9 17 92
326 95 350 1 11 -11 15 -48 15 -49 0 -50 -1 -77 -50 -70 -127 -174 -203 -309
-223 -91 -14 -315 -12 -374 4 -60 16 -98 51 -122 112 -16 41 -19 78 -19 292
l0 245 165 1 c319 2 384 -25 430 -174 l18 -57 46 -2 46 -1 -2 276 -3 277 -45
0 c-44 0 -45 0 -52 -42 -15 -87 -64 -139 -158 -163 -42 -11 -395 -21 -432 -12
-16 4 -17 29 -15 301 l2 296 225 -1 c143 0 245 -5 280 -13 96 -23 165 -79 217
-178 27 -50 33 -55 68 -55 45 0 44 -7 42 174 l-2 172 -657 1 c-432 0 -658 -3
-659 -10z"/>
<path d="M6005 1321 c-90 -54 -91 -187 -2 -241 66 -41 159 -12 195 60 60 121
-79 251 -193 181z"/>
</g>
</svg>
